<?xml version="1.0" encoding="utf-8"?>
<!-- Generator: Adobe Illustrator 19.1.0, SVG Export Plug-In . SVG Version: 6.00 Build 0)  -->
<svg version="1.1" id="Layer_1" xmlns="http://www.w3.org/2000/svg" xmlns:xlink="http://www.w3.org/1999/xlink" x="0px" y="0px"
	 viewBox="-199 201 200 200" style="enable-background:new -199 201 200 200;" xml:space="preserve">
<path d="M-199,201v200H1V201H-199z M-119.9,267.3l25.7-13.3v2.4l-12.6,6.5l-10.9,5.5l10.9,5.5l12.6,6.5v2.4l-25.7-13.4
	C-119.9,269.4-119.9,267.3-119.9,267.3z M-149.5,242.9h2.6v50.9h-2.6V242.9z M-132.5,359.1h-17v-50.9h16.9c15,0,23.3,5.6,23.3,25.4
	S-117.6,359.1-132.5,359.1z M-51.8,359.1h-2.6v-30l0.2-16.4l-4.5,11l-14.8,35.4h-2.9l-14.8-35.4l-4.5-11l0.2,16.4v30h-2.6v-50.9h3.2
	l15.2,36.3l4.8,11.8l4.8-11.8l15.2-36.3h3.2L-51.8,359.1L-51.8,359.1z M-70.7,294.5c-11.8,0-16.7-5-17.5-11.9l2.6-0.4
	c0.7,5.9,4.4,9.8,14.9,9.9c9.9,0.1,16.3-3.3,16.3-11.5c0-9.9-8.2-11.2-13.8-11.2H-77v-2.3h8.8c6.3,0,12.6-1.4,12.6-10.6
	c0-7.8-6.6-10.9-14.7-10.8c-9.6,0.1-13.4,3.2-14.8,9.8l-2.6-0.4c1.3-7,5.8-11.8,17.3-11.8c9,0,17.2,3.7,17.2,13.1
	c0,6.9-4.5,11.2-9.2,11.7v0.1c4.7,0.5,10.6,3.7,10.6,12.5C-51.8,289.1-57.8,294.5-70.7,294.5z"/>
<path d="M-131.8,310.5h-15v46.2h15c13.9,0,19.8-5.5,19.8-23.1S-117.9,310.5-131.8,310.5z"/>
</svg>
