<?xml version="1.0" encoding="utf-8"?>
<!-- Generator: Adobe Illustrator 19.1.0, SVG Export Plug-In . SVG Version: 6.00 Build 0)  -->
<svg version="1.1" id="Layer_1" xmlns="http://www.w3.org/2000/svg" xmlns:xlink="http://www.w3.org/1999/xlink" x="0px" y="0px"
	 viewBox="0 0 500 150" style="enable-background:new 0 0 500 150;" xml:space="preserve">
<g>
	<path d="M217.7,39.5c0,9.1,0,18.3,0,28.1c9.1,0,18.1,0,28,0c0,14.7,0,28.8,0,42.9c-32.9,0-65.9,0-98.9,0c0-23.5,0-47.1,0-71
		C170.4,39.5,194.1,39.5,217.7,39.5z M161,95.2c23.4,0,46.5,0,69.3,0c0-4.4,0-8.5,0-12.4c-23.3,0-46.2,0-69.3,0
		C161,87,161,90.9,161,95.2z M202.5,54.8c-13.9,0-27.6,0-41.4,0c0,4.6,0,9,0,13.4c14,0,27.7,0,41.4,0
		C202.5,63.5,202.5,59.2,202.5,54.8z"/>
	<path d="M500,39.5c-33,0-66,0-99,0c0,23.7,0,47.3,0,71c33,0,66,0,99,0c0-5,0-10,0-15c-0.8,0-1.5,0-2.3,0c-27,0-54.1,0-81.5,0
		c-0.8,0-1.5,0-2.3,0c0-13.6,0-27.1,0-40.6c0.3-0.2,0.6-0.5,0.9-0.5c0.8,0,1.5,0,2.3,0c0,0,0,0,0,0c27.6,0,55.3,0,82.9,0.1
		C500,49.5,500,44.5,500,39.5z"/>
	<path d="M317,68c0,14.3,0,28.4,0,42.5c4.2,0,8.5,0,12.7,0c0-9.1,0-18.3,0-27.8c0.8,0,1.5,0,2.3,0c3.5,0,7,0,10.7,0
		c0.7,0,1.5,0,2.3,0c0,9.3,0,18.6,0,27.8c4.2,0,8.5,0,12.7,0c0-9.1,0-18.3,0-27.8c0.8,0,1.5,0,2.3,0c3.5,0,7,0,10.7,0
		c0.7,0,1.5,0,2.3,0c0,9.3,0,18.6,0,27.8c5,0,10,0,15,0c0-14.1,0-28.2,0-42.5C364.1,68,340.9,68,317,68z"/>
	<rect x="288.4" y="96.2" width="14.3" height="14.3"/>
	<rect x="274.1" y="81.9" width="14.3" height="14.3"/>
	<rect x="259.8" y="96.2" width="14.3" height="14.3"/>
	<rect x="288.4" y="67.6" width="14.3" height="14.3"/>
	<rect x="259.8" y="67.6" width="14.3" height="14.3"/>
</g>
<g id="Layer_2">
	<rect x="83.3" y="95.8" width="41.7" height="41.7"/>
	<rect x="41.7" y="54.2" width="41.7" height="41.7"/>
	<rect x="0" y="95.8" width="41.7" height="41.7"/>
	<rect x="83.3" y="12.5" width="41.7" height="41.7"/>
	<rect x="0" y="12.5" width="41.7" height="41.7"/>
</g>
</svg>
