<?xml version="1.0" encoding="utf-8"?>
<!-- Generator: Adobe Illustrator 19.1.0, SVG Export Plug-In . SVG Version: 6.00 Build 0)  -->
<svg version="1.1" id="Layer_1" xmlns="http://www.w3.org/2000/svg" xmlns:xlink="http://www.w3.org/1999/xlink" x="0px" y="0px"
	 viewBox="-199 201 200 200" style="enable-background:new -199 201 200 200;" xml:space="preserve">
<style type="text/css">
	.st0{fill:#404040;}
</style>
<g>
	<polygon class="st0" points="-119.1,256.3 -123.9,271.8 -119.6,271.8 	"/>
	<path class="st0" d="M-199,201v200H1V201H-199z M-59.8,256l1.4-8.5h14l-5.8,36.7h-10l4.4-28.2L-59.8,256z M-90.9,247.5l0.9,5.4
		c0,0.3,0.2,1.6,0.5,3.9c0.1,0.5,0.1,1.3,0.3,2.2c0.4-0.9,0.7-1.7,0.9-2.2c0.5-1.2,1.2-2.6,1.9-4.1l2.5-5.1h10.3l-11.9,21l-2.5,15.7
		h-10l2.5-15.6l-5.7-21.1H-90.9z M-164.2,273.2l0.1-12l-2.3,11.9l-2.3,11h-10.6l10-36.7h12.2l0.1,9c0,1.7,0,3.5,0,5.4
		c0,1.9-0.1,3.7-0.1,5.3c0.3-0.9,0.5-1.7,0.7-2.3c1-3.3,1.9-6.2,2.7-8.5c0.6-1.8,1.2-3.7,2-5.8c0.3-0.8,0.7-1.8,1.2-3.2h12.3
		l-2.1,36.7h-10.3l0.9-10.3l1.5-12.8l-4.1,12.7l-3.6,10.4h-8.1L-164.2,273.2z M-128.1,332.1c0,0.3,0,0.5,0,0.6
		c-0.6,5.5-2.9,10.1-7,13.7c-4.1,3.6-8.9,5.5-14.6,5.5c-4.1,0-7.5-1.4-10.2-4.1c-2.7-2.7-4-6.3-4-10.9c0-0.7,0-1.2,0.1-1.6
		c0-0.4,0.1-1.1,0.3-1.9c0.4-2.8,1.3-5.8,2.7-9c1.4-3.2,3.3-6.6,5.8-10.2l10.1-15.1h15l-13.8,18.9l1.7-0.7c1.2-0.5,2.4-0.8,3.7-0.8
		c3.2,0,5.7,1.5,7.7,4.6c1.7,2.7,2.6,6,2.6,9.8C-128.1,331.4-128.1,331.8-128.1,332.1z M-128,284.1h-10.1l14.5-36.7h12.1l2.1,36.7
		h-10.2v-4.6h-6.7L-128,284.1z M-91.3,330.8c-3.5,2.3-8,3.4-13.7,3.4h-1.3L-109,351h-14l8.2-51.9h13.5c6.3,0,11,1.4,14.2,4.1
		c2.8,2.5,4.3,5.8,4.3,10c0,1-0.1,2.1-0.3,3.5c-0.5,2.8-1.2,5-2,6.8C-86.6,326.6-88.6,329.1-91.3,330.8z M-30.3,351h-14.6l1.3-14.5
		l2.2-18.1l-5.8,17.9l-5.1,14.7h-11.4l-0.3-15.5l0.1-17l-3.2,16.9l-3.3,15.6h-15.1l14.2-51.9h17.3l0.1,12.8c0,2.4,0,5-0.1,7.7
		c0,2.7-0.1,5.2-0.2,7.5c0.4-1.3,0.7-2.4,1-3.3c1.4-4.7,2.7-8.7,3.8-12.1c0.8-2.5,1.7-5.2,2.8-8.2c0.4-1.1,0.9-2.6,1.7-4.5h17.5
		L-30.3,351z M-16,258.9c-0.4,3-2,6.3-4.9,9.8c-1.5,1.8-3.7,4-6.6,6.6l-1,0.9l2-0.2l1.7-0.1h5.7l-1.4,8.4h-25l13.6-15.1
		c1.3-1.4,2.2-2.6,2.8-3.4c2-2.6,3.2-5,3.6-7.2c0.1-0.2,0.1-0.4,0.1-0.7c0-0.2,0-0.4,0-0.5c0-1.3-0.5-2.1-1.5-2.3
		c-0.9-0.1-1.6,0.3-2.3,1.4c-0.5,0.8-0.8,1.9-1.2,3.2l-0.3,1.2h-9.3l0.3-2.1c0.5-3.1,1.9-5.8,4.4-8.1c2.7-2.5,5.9-3.7,9.6-3.7
		c3.2,0,5.6,0.9,7.3,2.6c1.7,1.7,2.5,4.1,2.5,7.2C-15.9,257.4-15.9,258.1-16,258.9z"/>
	<path class="st0" d="M-101.1,310.4h-1.4l-1.9,12h1.2c1.6,0,3-0.6,4.2-1.9s1.8-2.7,1.8-4.3c0.1-1.4-0.2-2.8-0.9-4
		C-98.7,311-99.8,310.4-101.1,310.4z"/>
	<path class="st0" d="M-144.4,326.5c-1.6,0-2.8,0.8-3.8,2.3c-0.7,1.2-1.3,2.8-1.6,4.9c-0.1,0.9-0.2,1.4-0.2,1.5
		c0,0.4-0.1,0.9-0.1,1.5c0,1.3,0.2,2.3,0.7,3.1c0.4,0.8,1.3,1.1,2.5,1.1c1.4,0,2.6-0.8,3.6-2.5c0.8-1.4,1.3-3.1,1.5-5.2
		c0.1-0.8,0.1-1.4,0.1-1.9c0-1.4-0.2-2.6-0.5-3.3C-142.6,327-143.4,326.5-144.4,326.5z"/>
</g>
</svg>
