<?xml version="1.0" encoding="utf-8"?>
<!-- Generator: Adobe Illustrator 19.1.0, SVG Export Plug-In . SVG Version: 6.00 Build 0)  -->
<svg version="1.1" id="Layer_1" xmlns="http://www.w3.org/2000/svg" xmlns:xlink="http://www.w3.org/1999/xlink" x="0px" y="0px"
	 viewBox="0 0 400 120" style="enable-background:new 0 0 400 120;" xml:space="preserve">
<style type="text/css">
	.st0{fill:#404040;}
</style>
<path class="st0" d="M5.5,2.3v29.4H0V2.3H5.5z"/>
<path class="st0" d="M15.1,2.3l6.7,18.1V2.3h5.5v29.4h-5.2l-7-17.5v17.5H9.3V2.3H15.1z"/>
<path class="st0" d="M45.8,2.3v5.8h-4.6v23.6h-6.1V8.1h-4.6V2.3H45.8z"/>
<path class="st0" d="M48.3,2.3h11.9v5.5h-5.8v6.1h4.9v5.8h-4.9v6.4h5.8v5.5H48.3V2.3z"/>
<path class="st0" d="M82.9,17.1c0,0.5,0,1,0,1.5c0,0.7,0,1.4-0.1,2c0,0.6-0.1,1.2-0.2,1.6c-0.1,0.5-0.2,1-0.3,1.5
	c-0.4,1.8-0.9,3.1-1.5,4.2c-0.5,0.9-1.3,1.8-2.2,2.6c-0.9,0.8-2.1,1.3-3.6,1.5c-0.3,0-0.5,0.1-0.8,0.1s-0.5,0-0.7,0
	c-3.5,0-6.1-1.3-7.7-4.1c-1.7-2.8-2.6-5.9-2.9-9.3c0-0.3,0-0.6,0-0.9c0-0.3,0-0.6,0-0.9c0-0.5,0-1,0-1.4c0-0.5,0.1-0.9,0.1-1.4
	c0-0.4,0.1-1.1,0.3-2.3c0.2-1.2,0.6-2.4,1.2-3.7c0.7-1.5,1.7-2.9,3.1-4.2s3.1-1.9,5.4-1.9c0.5,0,1,0,1.5,0.1
	c0.5,0.1,1.1,0.2,1.7,0.3C78,2.8,79.2,3.6,80,4.7s1.5,2.4,2.1,3.9c0,0,0,0,0,0.1c0,0,0,0,0,0.1l-5.5,2.1c0-1.1-0.3-2-0.9-2.7
	c-0.6-0.7-1.3-1-2.1-1c-0.1,0-0.2,0-0.3,0s-0.2,0-0.3,0C72.5,7.3,72,7.6,71.4,8c-0.5,0.5-1,1.1-1.3,2c-0.2,0.4-0.3,1-0.5,1.6
	c-0.1,0.7-0.2,1.4-0.3,2.1c-0.1,1.1-0.2,2.6-0.2,4.5c0,0.1,0,0.2,0,0.3c0,0.1,0,0.3,0,0.5c0,0.4,0,0.9,0.1,1.5
	c0,0.6,0.1,1.2,0.2,1.8c0.2,1,0.6,2,1.1,2.9c0.5,0.9,1.3,1.4,2.5,1.4c1.2,0,2.1-0.5,2.8-1.5c0.6-1,1-2.5,1.2-4.3l-4,0v-5.5h9.6
	C82.8,16,82.8,16.6,82.9,17.1z"/>
<path class="st0" d="M93.2,2.3c2.6,0,4.8,0.8,6.6,2.4c1.8,1.5,2.6,3.6,2.6,6.3c0,0.6-0.1,1.5-0.3,2.6c-0.2,1.1-0.9,2.2-2.2,3.4
	c-0.3,0.3-0.5,0.5-0.8,0.7c-0.3,0.3-0.6,0.5-1,0.7l5.2,13.4h-6.1l-5.2-13.8v13.8h-6.2V2.3H93.2z M91.7,7.2v8c0,0,0.1,0,0.1,0
	c0,0,0.1,0,0.1,0c0,0,0.1,0,0.1,0c0,0,0.1,0,0.1,0c1.3,0,2.2-0.2,2.8-0.6c0.6-0.4,1-0.9,1.3-1.4c0.1-0.3,0.2-0.6,0.3-0.9
	c0-0.3,0.1-0.5,0.1-0.7c0,0,0-0.1,0-0.2c0,0,0-0.1,0-0.1c0,0,0-0.1,0-0.1c0,0,0,0,0-0.1s0-0.1,0-0.1c0,0,0,0,0-0.1c0,0,0-0.1,0-0.1
	c0-1.1-0.2-1.9-0.8-2.5c-0.5-0.5-1.1-0.8-1.7-1c-0.3-0.1-0.5-0.1-0.8-0.2c-0.3,0-0.5,0-0.7,0c-0.2,0-0.3,0-0.4,0s-0.2,0-0.3,0
	C91.9,7.2,91.8,7.2,91.7,7.2L91.7,7.2z"/>
<path class="st0" d="M117.5,2.3l7,29.4h-6.2l-0.9-4.9h-5.8l-1.2,4.9h-5.8l6.7-29.4C111.4,2.3,117.5,2.3,117.5,2.3z M116.6,22.5
	l-2.5-12.9l-1.8,12.9H116.6z"/>
<path class="st0" d="M138.8,2.3v5.8h-4.6v23.6H128V8.1h-4.6V2.3H138.8z"/>
<path class="st0" d="M141.3,2.3h11.9v5.5h-5.8v6.1h4.9v5.8h-4.9v6.4h5.8v5.5h-11.9V2.3z"/>
<path class="st0" d="M157.9,2.3c0.5,0,0.9,0,1.4,0c0.8,0,1.5,0,2.1,0s1.1,0,1.4,0c2.6,0,4.7,0.6,6.3,1.8c1.5,1.2,2.7,2.6,3.5,4.4
	c0.5,1.1,0.9,2.4,1.3,3.7c0.3,1.3,0.5,2.8,0.5,4.3c0,1.1-0.1,2.4-0.3,3.7c-0.2,1.3-0.5,2.7-0.8,4.2c-0.5,1.8-1.5,3.5-3.2,5
	c-1.7,1.5-4.1,2.3-7.2,2.3h-6.2V2.3C157,2.3,157.4,2.3,157.9,2.3z M162.5,7.5v19.3c2.3-0.1,3.8-1,4.6-2.8c0.7-1.8,1.1-3.6,1.2-5.7
	c0-0.3,0-0.5,0-0.8c0-0.3,0-0.5,0-0.8c0-0.2,0-0.3,0-0.5c0-0.1,0-0.3,0-0.4c-0.1-2-0.5-3.9-1.3-5.6C166.1,8.6,164.7,7.7,162.5,7.5
	L162.5,7.5z"/>
<path class="st0" d="M187.6,2.3c0.5,0,0.9,0,1.4,0c0.8,0,1.5,0,2.1,0s1.1,0,1.4,0c2.6,0,4.7,0.6,6.3,1.8c1.5,1.2,2.7,2.6,3.5,4.4
	c0.5,1.1,0.9,2.4,1.3,3.7c0.3,1.3,0.5,2.8,0.5,4.3c0,1.1-0.1,2.4-0.3,3.7c-0.2,1.3-0.5,2.7-0.8,4.2c-0.4,1.8-1.5,3.5-3.2,5
	c-1.7,1.5-4.1,2.3-7.2,2.3h-6.2V2.3C186.8,2.3,187.2,2.3,187.6,2.3z M192.2,7.5v19.3c2.3-0.1,3.8-1,4.6-2.8c0.7-1.8,1.1-3.6,1.2-5.7
	c0-0.3,0-0.5,0-0.8c0-0.3,0-0.5,0-0.8c0-0.2,0-0.3,0-0.5c0-0.2,0-0.3,0-0.4c-0.1-2-0.5-3.9-1.4-5.6C195.9,8.6,194.4,7.7,192.2,7.5
	L192.2,7.5z"/>
<path class="st0" d="M212.9,2.3v29.4h-5.5V2.3H212.9z"/>
<path class="st0" d="M236.1,17.1c0,0.5,0,1,0,1.5c0,0.7,0,1.4-0.1,2c0,0.6-0.1,1.2-0.2,1.6c-0.1,0.5-0.2,1-0.3,1.5
	c-0.4,1.7-0.9,3.1-1.5,4.2c-0.5,0.9-1.3,1.8-2.2,2.6c-0.9,0.8-2.1,1.3-3.6,1.5c-0.3,0-0.5,0.1-0.8,0.1s-0.5,0-0.7,0
	c-3.5,0-6.1-1.4-7.7-4.1c-1.7-2.8-2.6-5.9-2.9-9.3c0-0.3,0-0.6,0-0.9c0-0.3,0-0.6,0-0.9c0-0.5,0-1,0-1.4c0-0.5,0.1-0.9,0.1-1.4
	c0-0.4,0.1-1.1,0.3-2.3c0.2-1.2,0.6-2.4,1.2-3.7c0.7-1.5,1.7-2.9,3.1-4.2s3.1-1.9,5.4-1.9c0.5,0,1,0,1.5,0.1
	c0.5,0.1,1.1,0.2,1.7,0.3c1.7,0.5,2.9,1.3,3.7,2.4c0.8,1.1,1.5,2.4,2.1,3.9c0,0,0,0,0,0.1c0,0,0,0,0,0.1l-5.5,2.1
	c0-1.1-0.3-2-0.9-2.7c-0.6-0.7-1.3-1-2.1-1c-0.1,0-0.2,0-0.3,0c-0.1,0-0.2,0-0.3,0c-0.5,0.1-1.1,0.4-1.6,0.8c-0.5,0.5-1,1.1-1.3,2
	c-0.2,0.4-0.3,1-0.5,1.6c-0.1,0.7-0.2,1.4-0.3,2.1c-0.1,1.1-0.2,2.6-0.2,4.5c0,0.1,0,0.2,0,0.3s0,0.3,0,0.5c0,0.4,0,0.9,0.1,1.5
	c0,0.6,0.1,1.2,0.2,1.8c0.2,1,0.6,2,1.1,2.9c0.5,0.9,1.3,1.3,2.5,1.4c1.2,0,2.1-0.5,2.8-1.5c0.6-1,1-2.5,1.2-4.3l-4,0v-5.5h9.5
	C236,16.1,236,16.6,236.1,17.1z"/>
<path class="st0" d="M244.9,2.3v29.4h-5.5V2.3H244.9z"/>
<path class="st0" d="M262.8,2.3v5.8h-4.6v23.6H252V8.1h-4.6V2.3H262.8z"/>
<path class="st0" d="M274.1,2.3l7,29.4H275l-0.9-4.9h-5.9l-1.2,4.9h-5.8L268,2.3H274.1z M273.2,22.5l-2.5-12.9l-1.8,12.9H273.2z"/>
<path class="st0" d="M289.2,2.4v23.9h6.7v5.5h-12.6V2.4H289.2z"/>
<path class="st0" d="M316.7,2.3l2.7,18.1l2.5-18.1h7.7l3.4,29.4h-6.2l-1.5-20.5l-3.4,20.5h-4.6l-3.6-20.5l-1.3,20.5h-6.1L309,2.3
	H316.7z"/>
<path class="st0" d="M336,2.3h11.9v5.5h-5.8v6.1h4.9v5.8h-4.9v6.4h5.8v5.5H336L336,2.3L336,2.3z"/>
<path class="st0" d="M352.6,2.3c0.5,0,0.9,0,1.4,0c0.8,0,1.5,0,2.1,0s1.1,0,1.4,0c2.6,0,4.7,0.6,6.3,1.8c1.5,1.2,2.7,2.6,3.5,4.4
	c0.5,1.1,0.9,2.4,1.3,3.7c0.3,1.3,0.5,2.8,0.5,4.3c0,1.1-0.1,2.4-0.3,3.7c-0.2,1.3-0.5,2.7-0.8,4.2c-0.5,1.8-1.5,3.5-3.2,5
	c-1.7,1.5-4.1,2.3-7.2,2.3h-6.2V2.3C351.8,2.3,352.2,2.3,352.6,2.3z M357.2,7.5v19.3c2.3-0.1,3.8-1,4.6-2.8c0.7-1.8,1.1-3.6,1.2-5.7
	c0-0.3,0-0.5,0-0.8c0-0.3,0-0.5,0-0.8c0-0.2,0-0.3,0-0.5c0-0.2,0-0.3,0-0.4c-0.1-2-0.5-3.9-1.3-5.6C360.9,8.6,359.4,7.7,357.2,7.5
	L357.2,7.5z"/>
<path class="st0" d="M377.8,2.3v29.4h-5.5V2.3H377.8z"/>
<path class="st0" d="M393,2.3l7,29.4h-6.2l-0.9-4.9h-5.8l-1.2,4.9h-5.8l6.7-29.4H393z M392,22.5l-2.5-12.9l-1.8,12.9H392z"/>
<g>
	<path d="M0.4,75.6l8.2-12c1.8,2.3,3.7,4,5.8,5.2c2.1,1.2,4.2,1.8,6.2,1.8c0.9,0,1.6-0.2,2.2-0.5c0.5-0.3,0.8-0.8,0.8-1.3
		c0-0.8-1.2-1.7-3.5-2.7c-0.5-0.2-0.9-0.4-1.2-0.5c-3.9-1.6-6.8-3.5-8.5-5.6s-2.7-4.7-2.7-7.7c0-4.8,1.7-8.6,5.2-11.6
		c3.5-3,8-4.5,13.7-4.5c3.3,0,6.3,0.5,9,1.4c2.8,0.9,5.3,2.4,7.5,4.3l-6.4,11.2c-1.9-1.6-3.5-2.8-5.1-3.6c-1.5-0.8-2.9-1.2-4.2-1.2
		c-0.8,0-1.4,0.2-1.9,0.5c-0.5,0.4-0.7,0.9-0.7,1.4c0,1,1.4,2.1,4.1,3.3c0.7,0.3,1.3,0.6,1.7,0.7c3.5,1.6,6.1,3.4,7.6,5.4
		c1.5,2,2.2,4.5,2.2,7.5c0,4.8-1.9,8.8-5.6,12c-3.7,3.2-8.4,4.8-14.1,4.8c-3.6,0-7.1-0.7-10.5-2.1C6.8,80.4,3.5,78.3,0.4,75.6z"/>
	<path d="M41.4,82.8l8.4-45.7h16.6l-2.9,15.8h9l2.9-15.8h16.6l-8.5,45.7H67l3.1-16.4h-9L58,82.8H41.4z"/>
	<path d="M117.7,84.1c-3.3,0-6.3-0.5-8.9-1.4c-2.7-0.9-5-2.2-7.1-4c-2.2-1.9-3.9-4.3-5.1-7.1c-1.2-2.8-1.8-5.8-1.8-9
		c0-3.4,0.5-6.6,1.6-9.6c1.1-3,2.6-5.6,4.7-8.1c2.4-2.9,5.4-5.1,8.9-6.6c3.5-1.6,7.3-2.3,11.4-2.3c6.9,0,12.4,2,16.7,5.9
		c4.2,4,6.4,9.1,6.4,15.5c0,3.4-0.5,6.6-1.6,9.6c-1.1,3-2.6,5.7-4.7,8c-2.5,2.9-5.5,5.1-8.9,6.7C125.6,83.3,121.8,84.1,117.7,84.1z
		 M120.2,51.3c-2.6,0-4.8,0.9-6.5,2.8c-1.7,1.9-2.6,4.2-2.6,6.9c0,2.4,0.7,4.3,2.1,5.8c1.4,1.4,3.3,2.1,5.6,2.1
		c2.6,0,4.7-0.9,6.5-2.8s2.6-4.2,2.6-7c0-2.3-0.7-4.1-2.1-5.6C124.2,52,122.4,51.3,120.2,51.3z"/>
	<path d="M152.4,82.8l-3.7-45.7h15.9l0.6,14.2c0,1.1,0.1,2.2,0.1,3.3c0,1.1,0,2.1,0,3c0,0.9,0,1.7,0,2.5c0,0.8-0.1,1.6-0.1,2.4
		l10-25.4h13.2l1.6,25.1c0.5-1.8,1-3.5,1.5-5s0.9-2.8,1.4-3.8l6.3-16.4h17.4L197,82.8h-16.7l-1.5-25.2c-0.4,1.6-0.8,3.1-1.3,4.5
		c-0.5,1.5-1,2.9-1.6,4.4l-6.9,16.3H152.4z"/>
	<path d="M268.7,66l-3.1,16.5c-1.4,0.5-2.8,0.9-4.2,1.2c-1.4,0.2-2.8,0.4-4.2,0.4c-2.8,0-5.5-0.5-8-1.4c-2.5-0.9-4.8-2.2-6.8-4
		c-2.2-1.9-3.9-4.3-5.1-7.1c-1.2-2.8-1.8-5.8-1.8-9c0-3.4,0.5-6.6,1.6-9.5c1-3,2.6-5.6,4.7-8.1c2.5-2.9,5.4-5.1,8.9-6.7
		c3.5-1.5,7.3-2.3,11.4-2.3c2.1,0,4.2,0.2,6.1,0.7c1.9,0.5,3.8,1.1,5.6,2l-2.8,15.3c-1.6-0.9-3.1-1.6-4.6-2c-1.5-0.5-3-0.7-4.4-0.7
		c-2.9,0-5.3,0.9-7.1,2.7c-1.9,1.8-2.8,4.2-2.8,7c0,2.4,0.7,4.3,2.2,5.7c1.4,1.4,3.4,2.1,5.8,2.1c1.3,0,2.8-0.2,4.3-0.7
		C265.8,67.6,267.3,66.9,268.7,66z"/>
	<path d="M269.6,83.6l23.9-45.7h18.1l6,45.7h-16.3l-0.3-6.1h-11l-2.5,6.1H269.6z M294.4,66.6h5.8l-0.2-4.9c0-0.3,0-0.7-0.1-1.2
		c-0.1-2.1-0.2-3.7-0.2-4.9c0-0.8,0-1.5,0-1.9c0-0.5,0-0.9,0-1.3c-0.4,1.2-0.7,2.4-1.2,3.5c-0.4,1.2-0.8,2.1-1.1,3L294.4,66.6z"/>
	<path d="M318.8,75.7l8.2-12c1.8,2.3,3.7,4,5.8,5.2c2.1,1.2,4.2,1.8,6.2,1.8c0.9,0,1.6-0.2,2.2-0.5c0.5-0.3,0.8-0.8,0.8-1.3
		c0-0.8-1.2-1.7-3.5-2.7c-0.5-0.2-0.9-0.4-1.2-0.5c-3.9-1.6-6.8-3.5-8.5-5.6s-2.7-4.7-2.7-7.7c0-4.8,1.7-8.6,5.2-11.6
		c3.5-3,8-4.5,13.7-4.5c3.3,0,6.3,0.5,9,1.4s5.3,2.4,7.5,4.3L355,53.1c-1.9-1.6-3.5-2.8-5.1-3.6c-1.5-0.8-2.9-1.2-4.2-1.2
		c-0.8,0-1.4,0.2-1.9,0.5c-0.5,0.4-0.7,0.9-0.7,1.4c0,1,1.4,2.1,4.1,3.3c0.7,0.3,1.3,0.6,1.7,0.7c3.5,1.6,6.1,3.4,7.6,5.4
		c1.5,2,2.2,4.5,2.2,7.5c0,4.8-1.9,8.8-5.6,12c-3.7,3.2-8.4,4.8-14.1,4.8c-3.6,0-7.1-0.7-10.5-2.1C325.1,80.4,321.9,78.4,318.8,75.7
		z"/>
	<path d="M359.8,82.9l8.4-45.7h31.4l-2.3,12.4h-14.9l-0.8,4.4h14l-2.1,11.6h-14l-0.9,4.9h16.2l-2.3,12.4L359.8,82.9L359.8,82.9z"/>
</g>
<g>
	<g>
		<path class="st0" d="M246.5,116.8v-5.7c0.4,0.4,0.9,0.8,1.3,1c0.5,0.2,1,0.5,1.5,0.5c0.2,0,0.4,0.1,0.5,0.1c0.2,0,0.4,0,0.5,0
			c0.9,0,1.7-0.2,2.4-0.7c0.7-0.5,1.1-1.2,1.2-2.2c0,0,0-0.1,0-0.1c0,0,0-0.1,0-0.1c0-0.7-0.3-1.4-0.8-2c-0.5-0.6-1.2-1.2-1.9-1.7
			c-0.5-0.4-1-0.7-1.4-1c-0.5-0.3-0.8-0.5-1-0.8c-1.2-1-2.1-2.1-2.7-3.3c-0.6-1.2-0.9-2.6-0.9-3.9c0-0.3,0-0.5,0-0.8
			c0-0.2,0-0.5,0.1-0.8c0-0.3,0.1-0.5,0.2-0.8c0.1-0.2,0.1-0.5,0.2-0.8c0.5-1.6,1.4-2.8,2.6-3.7c1.2-0.8,2.7-1.2,4.2-1.2
			c0.4,0,0.8,0,1.2,0.1c0.4,0,0.8,0.1,1.2,0.2c0.4,0.1,0.8,0.3,1.2,0.5c0.4,0.2,0.8,0.4,1.2,0.6v5.4c-0.7-0.6-1.5-1-2.2-1.3
			c-0.7-0.2-1.3-0.4-1.8-0.5c-0.9,0-1.6,0.3-2.1,0.8c-0.5,0.6-0.7,1.2-0.7,2c0,0.1,0,0.2,0,0.3c0,0.1,0,0.2,0,0.3
			c0,0.2,0.1,0.4,0.2,0.6c0.1,0.2,0.2,0.4,0.3,0.5c0.4,0.6,0.9,1.2,1.5,1.7c0.6,0.5,1.2,1,1.8,1.5c0,0,0.1,0.1,0.2,0.1
			c0,0,0.1,0.1,0.2,0.1c0.2,0.2,0.5,0.4,0.7,0.5c0.2,0.2,0.5,0.4,0.7,0.6c1,0.9,1.8,1.9,2.4,3c0.5,1.1,0.8,2.3,0.8,3.6
			c0,0.5,0,1.1-0.1,1.7c-0.1,0.6-0.2,1.2-0.5,1.7c-0.1,0.2-0.2,0.4-0.2,0.5c-0.1,0.2-0.2,0.4-0.2,0.6c-0.6,1.2-1.5,2.2-2.7,3.1
			c-1.2,0.8-2.6,1.2-4.3,1.2c-0.7,0-1.6-0.1-2.4-0.3C248.2,117.7,247.4,117.3,246.5,116.8L246.5,116.8z"/>
		<path class="st0" d="M270.6,88.8c2.8,0,4.8,0.7,5.9,2.1c1.1,1.4,1.8,2.9,2,4.5c0,0.2,0,0.5,0,0.7s0,0.5,0,0.7
			c0,0.8-0.1,1.6-0.2,2.4c-0.1,0.7-0.2,1.3-0.4,1.9c0,0.2-0.1,0.4-0.2,0.6c-0.1,0.2-0.1,0.3-0.2,0.4c-0.5,0.8-1.1,1.5-1.8,2
			c-0.7,0.5-1.4,0.9-2.1,1.2c-0.9,0.3-1.7,0.5-2.5,0.6c-0.8,0.1-1.4,0.1-1.9,0.1c-0.1,0-0.2,0-0.3,0s-0.2,0-0.2,0
			c-0.1,0-0.2,0-0.2,0v11.7h-5.6V88.8H270.6z M268.5,93.6v7.8c1.2,0,2.2-0.2,3.2-0.8c0.9-0.5,1.4-1.6,1.4-3.1c0-1.3-0.4-2.3-1.2-2.9
			c-0.8-0.7-1.6-1-2.6-1c0,0,0,0,0,0h0c0,0-0.1,0-0.2,0c0,0-0.1,0-0.2,0c-0.1,0-0.1,0-0.2,0C268.6,93.6,268.6,93.6,268.5,93.6
			L268.5,93.6z"/>
		<path class="st0" d="M288.7,88.8c2.6,0,4.7,0.8,6.5,2.3c1.7,1.5,2.6,3.6,2.6,6.2c0,0.6-0.1,1.5-0.3,2.5c-0.2,1.1-0.9,2.2-2.1,3.3
			c-0.2,0.2-0.5,0.5-0.8,0.7c-0.3,0.2-0.6,0.5-1,0.7l5.1,13.2h-6l-5.1-13.5v13.5h-6V88.8L288.7,88.8L288.7,88.8z M287.2,93.6v7.8
			c0,0,0.1,0,0.1,0c0,0,0.1,0,0.1,0s0.1,0,0.1,0s0.1,0,0.1,0c1.2,0,2.1-0.2,2.7-0.6s1-0.8,1.2-1.3c0.1-0.3,0.2-0.6,0.2-0.9
			c0-0.3,0.1-0.5,0.1-0.7c0,0,0-0.1,0-0.2c0,0,0-0.1,0-0.1c0,0,0-0.1,0-0.1c0,0,0,0,0-0.1c0,0,0-0.1,0-0.1c0,0,0,0,0-0.1
			c0,0,0-0.1,0-0.1c0-1.1-0.2-1.9-0.7-2.4c-0.5-0.5-1.1-0.8-1.7-1c-0.2-0.1-0.5-0.1-0.7-0.2c-0.2,0-0.5,0-0.7,0c-0.2,0-0.3,0-0.4,0
			c-0.1,0-0.2,0-0.3,0C287.4,93.6,287.3,93.6,287.2,93.6L287.2,93.6z"/>
		<path class="st0" d="M307.5,88.8v28.9h-5.4V88.8H307.5z"/>
		<path class="st0" d="M316.9,88.8l6.6,17.8V88.8h5.4v28.9h-5.1l-6.9-17.2v17.2h-5.7V88.8H316.9z"/>
		<path class="st0" d="M352.4,103.3c0,0.5,0,1,0,1.5c0,0.7,0,1.4-0.1,2c0,0.6-0.1,1.1-0.2,1.6c-0.1,0.5-0.2,1-0.2,1.5
			c-0.4,1.7-0.9,3.1-1.5,4.1c-0.5,0.9-1.2,1.7-2.2,2.5c-0.9,0.8-2.1,1.2-3.6,1.5c-0.2,0-0.5,0.1-0.7,0.1c-0.2,0-0.5,0-0.7,0
			c-3.5,0-6-1.3-7.6-4.1c-1.7-2.7-2.6-5.8-2.8-9.2c0-0.3,0-0.6,0-0.9s0-0.6,0-0.9c0-0.5,0-1,0-1.4s0.1-0.9,0.1-1.4
			c0-0.4,0.1-1.1,0.3-2.2c0.2-1.1,0.6-2.3,1.2-3.6c0.7-1.5,1.7-2.9,3-4.2c1.3-1.2,3.1-1.9,5.2-1.9c0.5,0,1,0,1.5,0.1
			c0.5,0.1,1.1,0.2,1.7,0.3c1.6,0.5,2.8,1.2,3.6,2.3c0.8,1.1,1.5,2.4,2,3.8c0,0,0,0,0,0.1s0,0,0,0.1l-5.4,2.1c0-1.1-0.3-2-0.9-2.6
			c-0.6-0.7-1.3-1-2.1-1c-0.1,0-0.2,0-0.2,0c-0.1,0-0.2,0-0.2,0c-0.5,0.1-1,0.4-1.6,0.8c-0.5,0.5-0.9,1.1-1.2,1.9
			c-0.2,0.4-0.3,1-0.5,1.6c-0.1,0.7-0.2,1.4-0.3,2.1c-0.1,1.1-0.2,2.6-0.2,4.5c0,0.1,0,0.2,0,0.3c0,0.1,0,0.3,0,0.5
			c0,0.4,0,0.9,0.1,1.5c0,0.6,0.1,1.2,0.2,1.8c0.2,1,0.5,2,1.1,2.8c0.5,0.9,1.3,1.3,2.4,1.4c1.2,0,2.1-0.5,2.7-1.5
			c0.6-1,1-2.4,1.2-4.2l-4,0v-5.4h9.3C352.3,102.3,352.3,102.8,352.4,103.3z"/>
		<path class="st0" d="M369.8,93.6h-2.7v-5.1h8.4v29.2h-5.7V93.6z"/>
	</g>
</g>
<g>
	<path class="st0" d="M385.6,88.4h5.5l-5.3,9.5l0,0.1c0.9-0.6,1.7-0.9,2.6-0.9c1.2,0,2.2,0.5,3.2,1.4c0.9,0.9,1.6,2.1,2.1,3.6
		c0.5,1.5,0.7,3.2,0.7,4.9c0,1.6-0.2,3.1-0.7,4.5c-0.4,1.4-1,2.5-1.7,3.4c-0.7,0.9-1.6,1.6-2.6,2.1c-1,0.5-2,0.7-3.1,0.7
		c-1,0-2-0.2-2.9-0.6c-1-0.4-1.8-1-2.5-1.8c-0.7-0.9-1.4-2.1-1.8-3.5c-0.5-1.4-0.7-2.8-0.7-4.2c0-3.6,1-7.3,3-11.2L385.6,88.4z
		 M386.4,112c0.5,0,1.1-0.2,1.5-0.6c0.5-0.4,0.8-1,1.1-1.7c0.3-0.7,0.4-1.5,0.4-2.4c0-0.9-0.1-1.6-0.4-2.3c-0.3-0.7-0.6-1.3-1.1-1.7
		c-0.5-0.4-1-0.6-1.5-0.6c-0.5,0-1.1,0.2-1.5,0.6s-0.8,1-1.1,1.7c-0.3,0.7-0.4,1.5-0.4,2.3c0,1.2,0.3,2.4,0.9,3.3
		C384.8,111.5,385.5,112,386.4,112z"/>
</g>
</svg>
